<svg width="21" height="21" viewBox="0 0 21 21" fill="none" xmlns="http://www.w3.org/2000/svg">
<g opacity="0.82">
<path d="M6.30582 11.9583L9.43249 15.085L15.295 9.22247C15.3906 9.11088 15.4405 8.96733 15.4348 8.82052C15.4291 8.67371 15.3683 8.53445 15.2644 8.43056C15.1605 8.32667 15.0212 8.26581 14.8744 8.26014C14.7276 8.25447 14.5841 8.30441 14.4725 8.39997L9.43249 13.4166L7.13415 11.1183C7.02256 11.0227 6.87902 10.9728 6.73221 10.9785C6.58539 10.9841 6.44613 11.045 6.34224 11.1489C6.23835 11.2528 6.17749 11.392 6.17182 11.5389C6.16615 11.6857 6.21609 11.8292 6.31165 11.9408L6.30582 11.9583Z" fill="white"/>
<path d="M5.83333 5.83335C5.98804 5.83335 6.13642 5.7719 6.24581 5.6625C6.35521 5.5531 6.41667 5.40473 6.41667 5.25002V1.75002C6.41667 1.59531 6.35521 1.44694 6.24581 1.33754C6.13642 1.22815 5.98804 1.16669 5.83333 1.16669C5.67862 1.16669 5.53025 1.22815 5.42085 1.33754C5.31146 1.44694 5.25 1.59531 5.25 1.75002V5.25002C5.25 5.40473 5.31146 5.5531 5.42085 5.6625C5.53025 5.7719 5.67862 5.83335 5.83333 5.83335Z" fill="white"/>
<path d="M18.6667 7.71167V17.5H2.33332V4.66667H4.08332V3.5H2.18749C2.05113 3.50228 1.91655 3.5314 1.79144 3.5857C1.66634 3.63999 1.55315 3.71841 1.45836 3.81645C1.36356 3.9145 1.28901 4.03026 1.23896 4.15713C1.1889 4.28399 1.16434 4.41947 1.16665 4.55583V17.6108C1.16434 17.7472 1.1889 17.8827 1.23896 18.0095C1.28901 18.1364 1.36356 18.2522 1.45836 18.3502C1.55315 18.4483 1.66634 18.5267 1.79144 18.581C1.91655 18.6353 2.05113 18.6644 2.18749 18.6667H18.8125C18.9488 18.6644 19.0834 18.6353 19.2085 18.581C19.3336 18.5267 19.4468 18.4483 19.5416 18.3502C19.6364 18.2522 19.711 18.1364 19.761 18.0095C19.8111 17.8827 19.8356 17.7472 19.8333 17.6108V7.19833C19.4716 7.42548 19.0785 7.59843 18.6667 7.71167Z" fill="white"/>
<path d="M13.1252 3.5H7.5835V4.66667H13.2885C13.1817 4.28692 13.1268 3.89447 13.1252 3.5Z" fill="white"/>
<path d="M17.5002 6.41665C19.111 6.41665 20.4168 5.11081 20.4168 3.49998C20.4168 1.88915 19.111 0.583313 17.5002 0.583313C15.8893 0.583313 14.5835 1.88915 14.5835 3.49998C14.5835 5.11081 15.8893 6.41665 17.5002 6.41665Z" fill="white"/>
</g>
</svg>
