<svg width="24" height="24" viewBox="0 0 24 24" fill="none" xmlns="http://www.w3.org/2000/svg">
<path fill-rule="evenodd" clip-rule="evenodd" d="M5.00017 9C5.00017 7.14348 5.73767 5.36301 7.05043 4.05025C8.36318 2.7375 10.1437 2 12.0002 2C13.8567 2 15.6372 2.7375 16.9499 4.05025C18.2627 5.36301 19.0002 7.14348 19.0002 9V12.764L20.8222 16.408C20.906 16.5757 20.9457 16.7621 20.9372 16.9494C20.9288 17.1368 20.8726 17.3188 20.774 17.4783C20.6754 17.6379 20.5377 17.7695 20.3739 17.8608C20.2101 17.9521 20.0257 18 19.8382 18H15.8742C15.6517 18.8582 15.1506 19.6183 14.4494 20.1609C13.7483 20.7035 12.8868 20.9979 12.0002 20.9979C11.1136 20.9979 10.2521 20.7035 9.55091 20.1609C8.84975 19.6183 8.34861 18.8582 8.12617 18H4.16217C3.97465 18 3.79024 17.9521 3.62644 17.8608C3.46265 17.7695 3.32491 17.6379 3.22632 17.4783C3.12773 17.3188 3.07155 17.1368 3.06312 16.9494C3.0547 16.7621 3.0943 16.5757 3.17817 16.408L5.00017 12.764V9ZM10.2682 18C10.4437 18.304 10.6962 18.5565 11.0002 18.732C11.3042 18.9075 11.6491 18.9999 12.0002 18.9999C12.3512 18.9999 12.6961 18.9075 13.0001 18.732C13.3042 18.5565 13.5566 18.304 13.7322 18H10.2682ZM12.0002 4C10.6741 4 9.40232 4.52678 8.46464 5.46447C7.52696 6.40215 7.00017 7.67392 7.00017 9V12.764C7.00015 13.0743 6.92792 13.3804 6.78917 13.658L5.61917 16H18.3822L17.2122 13.658C17.0731 13.3805 17.0005 13.0744 17.0002 12.764V9C17.0002 7.67392 16.4734 6.40215 15.5357 5.46447C14.598 4.52678 13.3263 4 12.0002 4Z" fill="white"/>
</svg>
